<?xml version="1.0" encoding="UTF-8"?>
<svg xmlns="http://www.w3.org/2000/svg" xmlns:xlink="http://www.w3.org/1999/xlink" width="32px" height="32px" viewBox="0 0 32 32" version="1.1">
<defs>
<linearGradient id="linear0" gradientUnits="userSpaceOnUse" x1="512" y1="922.496704" x2="512" y2="39.212101" gradientTransform="matrix(0.03125,0,0,0.03125,0,0)">
<stop offset="0" style="stop-color:rgb(94.901961%,61.568627%,4.313725%);stop-opacity:1;"/>
<stop offset="0.5307" style="stop-color:rgb(99.607843%,95.294118%,65.490196%);stop-opacity:1;"/>
<stop offset="1" style="stop-color:rgb(99.215686%,89.411765%,54.117647%);stop-opacity:1;"/>
</linearGradient>
<radialGradient id="radial0" gradientUnits="userSpaceOnUse" cx="799.379089" cy="843.257874" fx="799.379089" fy="843.257874" r="142.866302" gradientTransform="matrix(0.0276,0,0,0.0276,2.677244,2.380416)">
<stop offset="0" style="stop-color:rgb(99.215686%,89.411765%,54.117647%);stop-opacity:1;"/>
<stop offset="1" style="stop-color:rgb(96.078431%,69.019608%,17.647059%);stop-opacity:1;"/>
</radialGradient>
<radialGradient id="radial1" gradientUnits="userSpaceOnUse" cx="538.273926" cy="843.257874" fx="538.273926" fy="843.257874" r="142.866302" gradientTransform="matrix(-0.0276,0,0,0.0276,22.116026,2.380416)">
<stop offset="0" style="stop-color:rgb(99.215686%,89.411765%,54.117647%);stop-opacity:1;"/>
<stop offset="1" style="stop-color:rgb(96.078431%,69.019608%,17.647059%);stop-opacity:1;"/>
</radialGradient>
</defs>
<g id="surface1">
<path style=" stroke:none;fill-rule:nonzero;fill:url(#linear0);" d="M 29.800781 15.585938 C 29.800781 7.964844 23.621094 1.785156 16 1.785156 C 8.378906 1.785156 2.199219 7.964844 2.199219 15.585938 C 2.199219 23.210938 8.378906 29.390625 16 29.390625 C 23.621094 29.390625 29.800781 23.210938 29.800781 15.585938 Z M 29.800781 15.585938 "/>
<path style=" stroke:none;fill-rule:nonzero;fill:rgb(100%,100%,100%);fill-opacity:1;" d="M 25.988281 11.648438 C 25.988281 10.011719 24.222656 8.6875 22.046875 8.6875 C 19.867188 8.6875 18.101562 10.011719 18.101562 11.648438 C 18.101562 13.28125 19.867188 14.605469 22.046875 14.605469 C 24.222656 14.605469 25.988281 13.28125 25.988281 11.648438 Z M 25.988281 11.648438 "/>
<path style=" stroke:none;fill-rule:nonzero;fill:rgb(17.647059%,11.372549%,0.392157%);fill-opacity:1;" d="M 23.230469 11.648438 C 23.230469 10.558594 22.082031 9.675781 20.667969 9.675781 C 19.25 9.675781 18.101562 10.558594 18.101562 11.648438 C 18.101562 12.734375 19.25 13.617188 20.667969 13.617188 C 22.082031 13.617188 23.230469 12.734375 23.230469 11.648438 Z M 23.230469 11.648438 "/>
<path style=" stroke:none;fill-rule:nonzero;fill:rgb(100%,100%,100%);fill-opacity:1;" d="M 20.074219 11.648438 C 20.074219 11.101562 19.632812 10.660156 19.089844 10.660156 C 18.542969 10.660156 18.101562 11.101562 18.101562 11.648438 C 18.101562 12.191406 18.542969 12.632812 19.089844 12.632812 C 19.632812 12.632812 20.074219 12.191406 20.074219 11.648438 Z M 20.074219 11.648438 "/>
<path style=" stroke:none;fill-rule:nonzero;fill:rgb(100%,100%,100%);fill-opacity:1;" d="M 13.894531 11.648438 C 13.894531 10.011719 12.128906 8.6875 9.949219 8.6875 C 7.773438 8.6875 6.007812 10.011719 6.007812 11.648438 C 6.007812 13.28125 7.773438 14.605469 9.949219 14.605469 C 12.128906 14.605469 13.894531 13.28125 13.894531 11.648438 Z M 13.894531 11.648438 "/>
<path style=" stroke:none;fill-rule:nonzero;fill:rgb(17.647059%,11.372549%,0.392157%);fill-opacity:1;" d="M 11.132812 11.648438 C 11.132812 10.558594 9.984375 9.675781 8.570312 9.675781 C 7.152344 9.675781 6.007812 10.558594 6.007812 11.648438 C 6.007812 12.734375 7.152344 13.617188 8.570312 13.617188 C 9.984375 13.617188 11.132812 12.734375 11.132812 11.648438 Z M 11.132812 11.648438 "/>
<path style=" stroke:none;fill-rule:nonzero;fill:rgb(100%,100%,100%);fill-opacity:1;" d="M 7.976562 11.648438 C 7.976562 11.101562 7.535156 10.660156 6.992188 10.660156 C 6.449219 10.660156 6.007812 11.101562 6.007812 11.648438 C 6.007812 12.191406 6.449219 12.632812 6.992188 12.632812 C 7.535156 12.632812 7.976562 12.191406 7.976562 11.648438 Z M 7.976562 11.648438 "/>
<path style="fill:none;stroke-width:30;stroke-linecap:round;stroke-linejoin:miter;stroke:rgb(40.784314%,16.862746%,0%);stroke-opacity:1;stroke-miterlimit:10;" d="M 438.375 551 C 438.375 551 457.5 582.875 457.5 605.625 C 457.5 628.375 438.375 660.25 438.375 660.25 " transform="matrix(0.03125,0,0,0.03125,0,0)"/>
<path style="fill:none;stroke-width:30;stroke-linecap:round;stroke-linejoin:miter;stroke:rgb(40.784314%,16.862746%,0%);stroke-opacity:1;stroke-miterlimit:10;" d="M 458.875 602 C 458.875 602 481.375 609.875 497.375 609.875 C 513.375 609.875 535.875 602 535.875 602 " transform="matrix(0.03125,0,0,0.03125,0,0)"/>
<path style=" stroke:none;fill-rule:nonzero;fill:rgb(12.941177%,77.254903%,37.64706%);fill-opacity:1;" d="M 24.667969 17.257812 C 25.695312 22.339844 22.605469 27.414062 17.523438 28.773438 C 12.445312 30.132812 7.234375 27.289062 5.582031 22.371094 L 4.515625 22.65625 C 6.328125 28.160156 12.144531 31.355469 17.808594 29.835938 C 23.476562 28.316406 26.917969 22.644531 25.734375 16.972656 Z M 24.667969 17.257812 "/>
<path style=" stroke:none;fill-rule:nonzero;fill:rgb(97.647059%,10.980392%,21.568628%);fill-opacity:1;" d="M 21.742188 18.042969 C 21.546875 18.558594 21.222656 19.175781 20.753906 19.230469 C 19.9375 19.328125 20.332031 20.140625 19.546875 20.367188 C 18.9375 20.546875 18.101562 19.5625 17.757812 19.109375 L 16.730469 19.386719 C 16.648438 19.988281 16.308594 21.042969 14.933594 21.386719 C 13.773438 21.679688 13.085938 21.035156 12.71875 20.460938 L 5.582031 22.375 C 7.234375 27.289062 12.445312 30.132812 17.523438 28.773438 C 22.605469 27.414062 25.695312 22.34375 24.667969 17.257812 Z M 21.742188 18.042969 "/>
<path style=" stroke:none;fill-rule:nonzero;fill:rgb(0%,0%,0%);fill-opacity:1;" d="M 9.488281 23.375 C 9.460938 23.261719 9.191406 23.238281 8.894531 23.316406 C 8.59375 23.398438 8.375 23.550781 8.40625 23.664062 C 8.433594 23.773438 8.703125 23.800781 9 23.71875 C 9.300781 23.640625 9.519531 23.484375 9.488281 23.375 Z M 9.488281 23.375 "/>
<path style=" stroke:none;fill-rule:nonzero;fill:rgb(0%,0%,0%);fill-opacity:1;" d="M 13.738281 24.089844 C 13.707031 23.976562 13.441406 23.953125 13.140625 24.03125 C 12.839844 24.113281 12.621094 24.269531 12.652344 24.378906 C 12.683594 24.492188 12.949219 24.515625 13.25 24.433594 C 13.546875 24.355469 13.765625 24.199219 13.738281 24.089844 Z M 13.738281 24.089844 "/>
<path style=" stroke:none;fill-rule:nonzero;fill:rgb(0%,0%,0%);fill-opacity:1;" d="M 17.644531 24.15625 C 17.613281 24.042969 17.347656 24.019531 17.046875 24.101562 C 16.75 24.179688 16.53125 24.335938 16.558594 24.445312 C 16.589844 24.558594 16.855469 24.582031 17.15625 24.503906 C 17.457031 24.421875 17.675781 24.265625 17.644531 24.15625 Z M 17.644531 24.15625 "/>
<path style=" stroke:none;fill-rule:nonzero;fill:rgb(0%,0%,0%);fill-opacity:1;" d="M 13.449219 26.726562 C 13.417969 26.613281 13.152344 26.589844 12.855469 26.667969 C 12.554688 26.75 12.335938 26.90625 12.367188 27.015625 C 12.394531 27.128906 12.664062 27.152344 12.960938 27.070312 C 13.261719 26.992188 13.480469 26.835938 13.449219 26.726562 Z M 13.449219 26.726562 "/>
<path style=" stroke:none;fill-rule:nonzero;fill:rgb(0%,0%,0%);fill-opacity:1;" d="M 17.875 26.726562 C 17.84375 26.613281 17.578125 26.589844 17.277344 26.667969 C 16.976562 26.75 16.757812 26.90625 16.789062 27.015625 C 16.820312 27.128906 17.085938 27.152344 17.386719 27.074219 C 17.683594 26.992188 17.902344 26.835938 17.875 26.726562 Z M 17.875 26.726562 "/>
<path style=" stroke:none;fill-rule:nonzero;fill:rgb(0%,0%,0%);fill-opacity:1;" d="M 20.371094 24.253906 C 20.339844 24.140625 20.074219 24.117188 19.773438 24.195312 C 19.476562 24.277344 19.257812 24.433594 19.289062 24.542969 C 19.316406 24.652344 19.582031 24.679688 19.882812 24.597656 C 20.183594 24.519531 20.402344 24.363281 20.371094 24.253906 Z M 20.371094 24.253906 "/>
<path style=" stroke:none;fill-rule:nonzero;fill:rgb(0%,0%,0%);fill-opacity:1;" d="M 21.109375 21.207031 C 21.078125 21.09375 20.8125 21.070312 20.511719 21.148438 C 20.214844 21.230469 19.996094 21.386719 20.023438 21.496094 C 20.054688 21.609375 20.320312 21.632812 20.621094 21.554688 C 20.921875 21.472656 21.140625 21.316406 21.109375 21.207031 Z M 21.109375 21.207031 "/>
<path style=" stroke:none;fill-rule:nonzero;fill:rgb(0%,0%,0%);fill-opacity:1;" d="M 13.492188 21.773438 C 13.464844 21.664062 13.195312 21.636719 12.898438 21.71875 C 12.597656 21.796875 12.378906 21.953125 12.410156 22.066406 C 12.4375 22.175781 12.707031 22.203125 13.003906 22.121094 C 13.304688 22.039062 13.523438 21.886719 13.492188 21.773438 Z M 13.492188 21.773438 "/>
<path style=" stroke:none;fill-rule:nonzero;fill:rgb(0%,0%,0%);fill-opacity:1;" d="M 24.152344 18.320312 C 24.125 18.207031 23.855469 18.183594 23.558594 18.261719 C 23.257812 18.34375 23.039062 18.5 23.070312 18.609375 C 23.097656 18.71875 23.367188 18.746094 23.664062 18.664062 C 23.964844 18.585938 24.183594 18.429688 24.152344 18.320312 Z M 24.152344 18.320312 "/>
<path style=" stroke:none;fill-rule:nonzero;fill:url(#radial0);" d="M 28.683594 25.65625 C 28.683594 23.476562 26.917969 21.710938 24.742188 21.710938 C 22.5625 21.710938 20.796875 23.476562 20.796875 25.65625 C 20.796875 27.832031 22.5625 29.597656 24.742188 29.597656 C 26.917969 29.597656 28.683594 27.832031 28.683594 25.65625 Z M 28.683594 25.65625 "/>
<path style=" stroke:none;fill-rule:nonzero;fill:url(#radial1);" d="M 11.203125 25.65625 C 11.203125 23.476562 9.4375 21.710938 7.257812 21.710938 C 5.082031 21.710938 3.316406 23.476562 3.316406 25.65625 C 3.316406 27.832031 5.082031 29.597656 7.257812 29.597656 C 9.4375 29.597656 11.203125 27.832031 11.203125 25.65625 Z M 11.203125 25.65625 "/>
</g>
</svg>
